<?xml version="1.0" encoding="utf-8"?>
<!-- Generator: Adobe Illustrator 24.0.1, SVG Export Plug-In . SVG Version: 6.00 Build 0)  -->
<svg version="1.1" id="Social_Icons" xmlns="http://www.w3.org/2000/svg" xmlns:xlink="http://www.w3.org/1999/xlink" x="0px"
	 y="0px" viewBox="0 0 128 128" style="enable-background:new 0 0 128 128;" xml:space="preserve">
<style type="text/css">
	.st0{fill-rule:evenodd;clip-rule:evenodd;fill:#0102F2;stroke:#040368;stroke-width:2;stroke-miterlimit:10;}
</style>
<path id="Internet_Explorer" class="st0" d="M70.7,35.4c14.1,0,23.5,11,23.8,21.9H46.6C47,48.1,55.7,35.4,70.7,35.4z M70.7,98.5
	c-14.1,0-24.1-12.2-24.5-24.6h81.7c1.2-26.7-8-45.7-31.7-58.9c3.5-3.8,31.8-13.7,24.6,13.3l2.8,4C135.8-4.9,98.9-2.9,74.5,9
	C39.2,8.8,19.3,30.9,13.8,53.5c9.5-13.6,21.8-21.7,29.9-23.9c-45.9,36.8-67.3,117.8-4.9,92.1l-4.3-2.6c-37.6,11.8-23-21.5-15.8-26.3
	c8.7,17.6,27.1,31.7,49.6,31.7c28.7,0,50-14.7,58.5-39.2H93.6C88.8,93.8,82.2,98.5,70.7,98.5z"/>
</svg>
